<svg xmlns="http://www.w3.org/2000/svg" viewBox="0 0 411 120" width="411" height="120">
<style>@import url(https://fonts.googleapis.com/css2?family=Doto:wght@700);.wm{font-family:"Doto",monospace;font-weight:700;letter-spacing:2px}</style>
<g>
<circle cx="12.00" cy="48.00" r="2.52" fill="#cdd6da" fill-opacity="0.122"/>
<circle cx="12.00" cy="60.00" r="2.52" fill="#cdd6da" fill-opacity="0.122"/>
<circle cx="12.00" cy="72.00" r="2.52" fill="#cdd6da" fill-opacity="0.122"/>
<circle cx="24.00" cy="24.00" r="2.52" fill="#cdd6da" fill-opacity="0.122"/>
<circle cx="24.00" cy="36.00" r="2.52" fill="#cdd6da" fill-opacity="0.122"/>
<circle cx="24.00" cy="48.00" r="2.52" fill="#cdd6da" fill-opacity="0.122"/>
<circle cx="24.00" cy="72.00" r="2.52" fill="#cdd6da" fill-opacity="0.122"/>
<circle cx="24.00" cy="84.00" r="2.52" fill="#cdd6da" fill-opacity="0.122"/>
<circle cx="24.00" cy="96.00" r="2.52" fill="#cdd6da" fill-opacity="0.122"/>
<circle cx="36.00" cy="24.00" r="2.52" fill="#cdd6da" fill-opacity="0.122"/>
<circle cx="36.00" cy="36.00" r="2.52" fill="#cdd6da" fill-opacity="0.122"/>
<circle cx="36.00" cy="84.00" r="2.52" fill="#cdd6da" fill-opacity="0.122"/>
<circle cx="36.00" cy="96.00" r="2.52" fill="#cdd6da" fill-opacity="0.122"/>
<circle cx="48.00" cy="12.00" r="2.52" fill="#cdd6da" fill-opacity="0.122"/>
<circle cx="48.00" cy="24.00" r="2.52" fill="#cdd6da" fill-opacity="0.122"/>
<circle cx="48.00" cy="96.00" r="2.52" fill="#cdd6da" fill-opacity="0.122"/>
<circle cx="48.00" cy="108.00" r="2.52" fill="#cdd6da" fill-opacity="0.122"/>
<circle cx="60.00" cy="12.00" r="2.52" fill="#cdd6da" fill-opacity="0.122"/>
<circle cx="60.00" cy="24.00" r="2.52" fill="#cdd6da" fill-opacity="0.122"/>
<circle cx="60.00" cy="36.00" r="2.52" fill="#cdd6da" fill-opacity="0.122"/>
<circle cx="60.00" cy="84.00" r="2.52" fill="#cdd6da" fill-opacity="0.122"/>
<circle cx="60.00" cy="96.00" r="2.52" fill="#cdd6da" fill-opacity="0.122"/>
<circle cx="60.00" cy="108.00" r="2.52" fill="#cdd6da" fill-opacity="0.122"/>
<circle cx="72.00" cy="12.00" r="2.52" fill="#cdd6da" fill-opacity="0.122"/>
<circle cx="72.00" cy="108.00" r="2.52" fill="#cdd6da" fill-opacity="0.122"/>
<circle cx="84.00" cy="24.00" r="2.52" fill="#cdd6da" fill-opacity="0.122"/>
<circle cx="84.00" cy="36.00" r="2.52" fill="#cdd6da" fill-opacity="0.122"/>
<circle cx="84.00" cy="84.00" r="2.52" fill="#cdd6da" fill-opacity="0.122"/>
<circle cx="84.00" cy="96.00" r="2.52" fill="#cdd6da" fill-opacity="0.122"/>
<circle cx="96.00" cy="24.00" r="2.52" fill="#cdd6da" fill-opacity="0.122"/>
<circle cx="96.00" cy="36.00" r="2.52" fill="#cdd6da" fill-opacity="0.122"/>
<circle cx="96.00" cy="48.00" r="2.52" fill="#cdd6da" fill-opacity="0.122"/>
<circle cx="96.00" cy="72.00" r="2.52" fill="#cdd6da" fill-opacity="0.122"/>
<circle cx="96.00" cy="84.00" r="2.52" fill="#cdd6da" fill-opacity="0.122"/>
<circle cx="96.00" cy="96.00" r="2.52" fill="#cdd6da" fill-opacity="0.122"/>
<circle cx="108.00" cy="48.00" r="2.52" fill="#cdd6da" fill-opacity="0.122"/>
<circle cx="108.00" cy="60.00" r="2.52" fill="#cdd6da" fill-opacity="0.122"/>
<circle cx="108.00" cy="72.00" r="2.52" fill="#cdd6da" fill-opacity="0.122"/>
<circle cx="24.00" cy="60.00" r="4.20" fill="#ff5454"/>
<circle cx="36.00" cy="48.00" r="3.30" fill="#39BFC6"/>
<circle cx="36.00" cy="60.00" r="3.30" fill="#39BFC6"/>
<circle cx="36.00" cy="72.00" r="3.30" fill="#39BFC6"/>
<circle cx="48.00" cy="36.00" r="3.30" fill="#7DE8ED"/>
<circle cx="48.00" cy="48.00" r="3.30" fill="#7DE8ED"/>
<circle cx="48.00" cy="60.00" r="3.30" fill="#7DE8ED"/>
<circle cx="48.00" cy="72.00" r="3.30" fill="#7DE8ED"/>
<circle cx="48.00" cy="84.00" r="3.30" fill="#7DE8ED"/>
<circle cx="60.00" cy="48.00" r="3.30" fill="#39BFC6"/>
<circle cx="60.00" cy="60.00" r="3.30" fill="#39BFC6"/>
<circle cx="60.00" cy="72.00" r="3.30" fill="#39BFC6"/>
<circle cx="72.00" cy="24.00" r="3.30" fill="#7DE8ED"/>
<circle cx="72.00" cy="36.00" r="3.30" fill="#7DE8ED"/>
<circle cx="72.00" cy="48.00" r="3.30" fill="#7DE8ED"/>
<circle cx="72.00" cy="60.00" r="3.30" fill="#7DE8ED"/>
<circle cx="72.00" cy="72.00" r="3.30" fill="#7DE8ED"/>
<circle cx="72.00" cy="84.00" r="3.30" fill="#7DE8ED"/>
<circle cx="72.00" cy="96.00" r="3.30" fill="#7DE8ED"/>
<circle cx="84.00" cy="48.00" r="3.30" fill="#39BFC6"/>
<circle cx="84.00" cy="60.00" r="3.30" fill="#39BFC6"/>
<circle cx="84.00" cy="72.00" r="3.30" fill="#39BFC6"/>
<circle cx="96.00" cy="60.00" r="4.20" fill="#cdd6da"/>
</g>
<text class="wm" x="180" y="60.0" dominant-baseline="central" font-size="62" fill="#cdd6da">yohoho</text>
</svg>