<svg xmlns="http://www.w3.org/2000/svg" viewBox="0 0 300 300" width="300" height="300">
<rect x="0" y="0" width="300" height="300" rx="66" ry="66" fill="#181b1f"/>
<circle cx="30.00" cy="120.00" r="6.30" fill="#cdd6da" fill-opacity="0.122"/>
<circle cx="30.00" cy="150.00" r="6.30" fill="#cdd6da" fill-opacity="0.122"/>
<circle cx="30.00" cy="180.00" r="6.30" fill="#cdd6da" fill-opacity="0.122"/>
<circle cx="60.00" cy="60.00" r="6.30" fill="#cdd6da" fill-opacity="0.122"/>
<circle cx="60.00" cy="90.00" r="6.30" fill="#cdd6da" fill-opacity="0.122"/>
<circle cx="60.00" cy="120.00" r="6.30" fill="#cdd6da" fill-opacity="0.122"/>
<circle cx="60.00" cy="180.00" r="6.30" fill="#cdd6da" fill-opacity="0.122"/>
<circle cx="60.00" cy="210.00" r="6.30" fill="#cdd6da" fill-opacity="0.122"/>
<circle cx="60.00" cy="240.00" r="6.30" fill="#cdd6da" fill-opacity="0.122"/>
<circle cx="90.00" cy="60.00" r="6.30" fill="#cdd6da" fill-opacity="0.122"/>
<circle cx="90.00" cy="90.00" r="6.30" fill="#cdd6da" fill-opacity="0.122"/>
<circle cx="90.00" cy="210.00" r="6.30" fill="#cdd6da" fill-opacity="0.122"/>
<circle cx="90.00" cy="240.00" r="6.30" fill="#cdd6da" fill-opacity="0.122"/>
<circle cx="120.00" cy="30.00" r="6.30" fill="#cdd6da" fill-opacity="0.122"/>
<circle cx="120.00" cy="60.00" r="6.30" fill="#cdd6da" fill-opacity="0.122"/>
<circle cx="120.00" cy="240.00" r="6.30" fill="#cdd6da" fill-opacity="0.122"/>
<circle cx="120.00" cy="270.00" r="6.30" fill="#cdd6da" fill-opacity="0.122"/>
<circle cx="150.00" cy="30.00" r="6.30" fill="#cdd6da" fill-opacity="0.122"/>
<circle cx="150.00" cy="60.00" r="6.30" fill="#cdd6da" fill-opacity="0.122"/>
<circle cx="150.00" cy="90.00" r="6.30" fill="#cdd6da" fill-opacity="0.122"/>
<circle cx="150.00" cy="210.00" r="6.30" fill="#cdd6da" fill-opacity="0.122"/>
<circle cx="150.00" cy="240.00" r="6.30" fill="#cdd6da" fill-opacity="0.122"/>
<circle cx="150.00" cy="270.00" r="6.30" fill="#cdd6da" fill-opacity="0.122"/>
<circle cx="180.00" cy="30.00" r="6.30" fill="#cdd6da" fill-opacity="0.122"/>
<circle cx="180.00" cy="270.00" r="6.30" fill="#cdd6da" fill-opacity="0.122"/>
<circle cx="210.00" cy="60.00" r="6.30" fill="#cdd6da" fill-opacity="0.122"/>
<circle cx="210.00" cy="90.00" r="6.30" fill="#cdd6da" fill-opacity="0.122"/>
<circle cx="210.00" cy="210.00" r="6.30" fill="#cdd6da" fill-opacity="0.122"/>
<circle cx="210.00" cy="240.00" r="6.30" fill="#cdd6da" fill-opacity="0.122"/>
<circle cx="240.00" cy="60.00" r="6.30" fill="#cdd6da" fill-opacity="0.122"/>
<circle cx="240.00" cy="90.00" r="6.30" fill="#cdd6da" fill-opacity="0.122"/>
<circle cx="240.00" cy="120.00" r="6.30" fill="#cdd6da" fill-opacity="0.122"/>
<circle cx="240.00" cy="180.00" r="6.30" fill="#cdd6da" fill-opacity="0.122"/>
<circle cx="240.00" cy="210.00" r="6.30" fill="#cdd6da" fill-opacity="0.122"/>
<circle cx="240.00" cy="240.00" r="6.30" fill="#cdd6da" fill-opacity="0.122"/>
<circle cx="270.00" cy="120.00" r="6.30" fill="#cdd6da" fill-opacity="0.122"/>
<circle cx="270.00" cy="150.00" r="6.30" fill="#cdd6da" fill-opacity="0.122"/>
<circle cx="270.00" cy="180.00" r="6.30" fill="#cdd6da" fill-opacity="0.122"/>
<circle cx="60.00" cy="150.00" r="10.50" fill="#ff5454"/>
<circle cx="90.00" cy="120.00" r="8.25" fill="#39BFC6"/>
<circle cx="90.00" cy="150.00" r="8.25" fill="#39BFC6"/>
<circle cx="90.00" cy="180.00" r="8.25" fill="#39BFC6"/>
<circle cx="120.00" cy="90.00" r="8.25" fill="#7DE8ED"/>
<circle cx="120.00" cy="120.00" r="8.25" fill="#7DE8ED"/>
<circle cx="120.00" cy="150.00" r="8.25" fill="#7DE8ED"/>
<circle cx="120.00" cy="180.00" r="8.25" fill="#7DE8ED"/>
<circle cx="120.00" cy="210.00" r="8.25" fill="#7DE8ED"/>
<circle cx="150.00" cy="120.00" r="8.25" fill="#39BFC6"/>
<circle cx="150.00" cy="150.00" r="8.25" fill="#39BFC6"/>
<circle cx="150.00" cy="180.00" r="8.25" fill="#39BFC6"/>
<circle cx="180.00" cy="60.00" r="8.25" fill="#7DE8ED"/>
<circle cx="180.00" cy="90.00" r="8.25" fill="#7DE8ED"/>
<circle cx="180.00" cy="120.00" r="8.25" fill="#7DE8ED"/>
<circle cx="180.00" cy="150.00" r="8.25" fill="#7DE8ED"/>
<circle cx="180.00" cy="180.00" r="8.25" fill="#7DE8ED"/>
<circle cx="180.00" cy="210.00" r="8.25" fill="#7DE8ED"/>
<circle cx="180.00" cy="240.00" r="8.25" fill="#7DE8ED"/>
<circle cx="210.00" cy="120.00" r="8.25" fill="#39BFC6"/>
<circle cx="210.00" cy="150.00" r="8.25" fill="#39BFC6"/>
<circle cx="210.00" cy="180.00" r="8.25" fill="#39BFC6"/>
<circle cx="240.00" cy="150.00" r="10.50" fill="#cdd6da"/>
</svg>